<svg viewBox="0 0 1200 620" xmlns="http://www.w3.org/2000/svg">
  <defs>
    <linearGradient id="g1" x1="0" y1="0" x2="1" y2="1"><stop offset="0%" stop-color="#ecfeff"/><stop offset="100%" stop-color="#f0fdf4"/></linearGradient>
    <linearGradient id="g2" x1="0" y1="0" x2="1" y2="1"><stop offset="0%" stop-color="#eff6ff"/><stop offset="100%" stop-color="#eef2ff"/></linearGradient>
  </defs>
  <rect width="1200" height="620" fill="#f8fafc"/>
  <rect x="70" y="40" rx="26" ry="26" width="1060" height="90" fill="#ffffff" stroke="#dbeafe" stroke-width="2"/>
  <text x="600" y="78" text-anchor="middle" font-size="20" font-weight="700" fill="#111827">消息渠道层</text>
  <text x="600" y="108" text-anchor="middle" font-size="16" fill="#475569">Feishu / Telegram / Dashboard / 更多平台</text>
  <rect x="180" y="170" rx="30" ry="30" width="840" height="110" fill="url(#g1)" stroke="#a7f3d0" stroke-width="2"/>
  <text x="600" y="218" text-anchor="middle" font-size="26" font-weight="800" fill="#065f46">Gateway</text>
  <text x="600" y="248" text-anchor="middle" font-size="16" fill="#166534">消息接收、路由、权限控制、会话管理</text>
  <rect x="120" y="330" rx="26" ry="26" width="450" height="120" fill="url(#g2)" stroke="#bfdbfe" stroke-width="2"/>
  <text x="345" y="385" text-anchor="middle" font-size="24" font-weight="800" fill="#1d4ed8">Agent Runtime</text>
  <text x="345" y="415" text-anchor="middle" font-size="16" fill="#334155">上下文、推理、任务编排</text>
  <rect x="630" y="330" rx="26" ry="26" width="450" height="120" fill="url(#g2)" stroke="#c7d2fe" stroke-width="2"/>
  <text x="855" y="385" text-anchor="middle" font-size="24" font-weight="800" fill="#4338ca">Skills / Tools</text>
  <text x="855" y="415" text-anchor="middle" font-size="16" fill="#334155">Browser / Exec / Docs / Search / Memory</text>
  <rect x="70" y="500" rx="26" ry="26" width="1060" height="78" fill="#ffffff" stroke="#e2e8f0" stroke-width="2"/>
  <text x="600" y="533" text-anchor="middle" font-size="20" font-weight="700" fill="#111827">本地状态层</text>
  <text x="600" y="560" text-anchor="middle" font-size="16" fill="#475569">配置文件 / 日志 / 记忆 / 工作区文件</text>
  <path d="M600 130 L600 170" stroke="#94a3b8" stroke-width="3" stroke-dasharray="6 6"/>
  <path d="M345 280 L345 330" stroke="#94a3b8" stroke-width="3" stroke-dasharray="6 6"/>
  <path d="M855 280 L855 330" stroke="#94a3b8" stroke-width="3" stroke-dasharray="6 6"/>
  <path d="M600 450 L600 500" stroke="#94a3b8" stroke-width="3" stroke-dasharray="6 6"/>
</svg>